<svg width="34" height="34" viewBox="0 0 34 34" fill="none" xmlns="http://www.w3.org/2000/svg">
<rect width="34" height="34" rx="17" fill="#1E1A2F" fill-opacity="0.6"/>
<path d="M17 10.0361C19.253 10.0361 19.5602 10.0361 20.4819 10.0361C21.3012 10.0361 21.7108 10.241 22.0181 10.3434C22.4277 10.5482 22.7349 10.6506 23.0422 10.9578C23.3494 11.2651 23.5542 11.5723 23.6566 11.9819C23.759 12.2892 23.8614 12.6988 23.9639 13.5181C23.9639 14.4398 23.9639 14.6446 23.9639 17C23.9639 19.3554 23.9639 19.5602 23.9639 20.4819C23.9639 21.3012 23.759 21.7108 23.6566 22.0181C23.4518 22.4277 23.3494 22.7349 23.0422 23.0422C22.7349 23.3494 22.4277 23.5542 22.0181 23.6566C21.7108 23.759 21.3012 23.8614 20.4819 23.9639C19.5602 23.9639 19.3554 23.9639 17 23.9639C14.6446 23.9639 14.4398 23.9639 13.5181 23.9639C12.6988 23.9639 12.2892 23.759 11.9819 23.6566C11.5723 23.4518 11.2651 23.3494 10.9578 23.0422C10.6506 22.7349 10.4458 22.4277 10.3434 22.0181C10.241 21.7108 10.1386 21.3012 10.0361 20.4819C10.0361 19.5602 10.0361 19.3554 10.0361 17C10.0361 14.6446 10.0361 14.4398 10.0361 13.5181C10.0361 12.6988 10.241 12.2892 10.3434 11.9819C10.5482 11.5723 10.6506 11.2651 10.9578 10.9578C11.2651 10.6506 11.5723 10.4458 11.9819 10.3434C12.2892 10.241 12.6988 10.1386 13.5181 10.0361C14.4398 10.0361 14.747 10.0361 17 10.0361ZM17 8.5C14.6446 8.5 14.4398 8.5 13.5181 8.5C12.5964 8.5 11.9819 8.70482 11.4699 8.90964C10.9578 9.11446 10.4458 9.42169 9.93374 9.93374C9.42169 10.4458 9.21687 10.8554 8.90964 11.4699C8.70482 11.9819 8.60241 12.5964 8.5 13.5181C8.5 14.4398 8.5 14.747 8.5 17C8.5 19.3554 8.5 19.5602 8.5 20.4819C8.5 21.4036 8.70482 22.0181 8.90964 22.5301C9.11446 23.0422 9.42169 23.5542 9.93374 24.0663C10.4458 24.5783 10.8554 24.7831 11.4699 25.0904C11.9819 25.2952 12.5964 25.3976 13.5181 25.5C14.4398 25.5 14.747 25.5 17 25.5C19.253 25.5 19.5602 25.5 20.4819 25.5C21.4036 25.5 22.0181 25.2952 22.5301 25.0904C23.0422 24.8855 23.5542 24.5783 24.0663 24.0663C24.5783 23.5542 24.7831 23.1446 25.0904 22.5301C25.2952 22.0181 25.3976 21.4036 25.5 20.4819C25.5 19.5602 25.5 19.253 25.5 17C25.5 14.747 25.5 14.4398 25.5 13.5181C25.5 12.5964 25.2952 11.9819 25.0904 11.4699C24.8855 10.9578 24.5783 10.4458 24.0663 9.93374C23.5542 9.42169 23.1446 9.21687 22.5301 8.90964C22.0181 8.70482 21.4036 8.60241 20.4819 8.5C19.5602 8.5 19.3554 8.5 17 8.5Z" fill="white"/>
<path d="M17 12.5964C14.5422 12.5964 12.5964 14.5422 12.5964 17C12.5964 19.4578 14.5422 21.4036 17 21.4036C19.4578 21.4036 21.4036 19.4578 21.4036 17C21.4036 14.5422 19.4578 12.5964 17 12.5964ZM17 19.8675C15.4639 19.8675 14.1325 18.6386 14.1325 17C14.1325 15.4639 15.3614 14.1325 17 14.1325C18.5361 14.1325 19.8675 15.3614 19.8675 17C19.8675 18.5361 18.5361 19.8675 17 19.8675Z" fill="white"/>
<path d="M21.506 13.5181C22.0716 13.5181 22.5301 13.0596 22.5301 12.494C22.5301 11.9284 22.0716 11.4699 21.506 11.4699C20.9404 11.4699 20.4819 11.9284 20.4819 12.494C20.4819 13.0596 20.9404 13.5181 21.506 13.5181Z" fill="white"/>
</svg>
