<svg width="54" height="54" viewBox="0 0 54 54" fill="none" xmlns="http://www.w3.org/2000/svg">
<g id="Group 508">
<rect id="Rectangle 4133" x="0.5" y="0.5" width="53" height="53" rx="26.5" stroke="#F5F5F5"/>
<path id="Arrow 3" d="M21 26.75C20.5858 26.75 20.25 27.0858 20.25 27.5C20.25 27.9142 20.5858 28.25 21 28.25V26.75ZM34.5303 28.0303C34.8232 27.7374 34.8232 27.2626 34.5303 26.9697L29.7574 22.1967C29.4645 21.9038 28.9896 21.9038 28.6967 22.1967C28.4038 22.4896 28.4038 22.9645 28.6967 23.2574L32.9393 27.5L28.6967 31.7426C28.4038 32.0355 28.4038 32.5104 28.6967 32.8033C28.9896 33.0962 29.4645 33.0962 29.7574 32.8033L34.5303 28.0303ZM21 28.25H34V26.75H21V28.25Z" fill="#F5F5F5"/>
</g>
</svg>
