<svg width="34" height="34" viewBox="0 0 34 34" fill="none" xmlns="http://www.w3.org/2000/svg">
<rect width="34" height="34" rx="17" fill="#1E1A2F" fill-opacity="0.6"/>
<path d="M17.8355 22.95C11.4465 22.95 7.80223 18.4831 7.65039 11.05H10.8508C10.9559 16.5057 13.3153 18.8166 15.1841 19.2931V11.05H18.1976V15.7553C20.0431 15.5528 21.982 13.4086 22.6361 11.05H25.6496C25.4031 12.2733 24.9118 13.4315 24.2064 14.4522C23.5009 15.4729 22.5966 16.3342 21.5498 16.9822C22.7182 17.5743 23.7502 18.4123 24.5777 19.441C25.4052 20.4697 26.0094 21.6657 26.3504 22.95H23.0332C22.7271 21.8345 22.105 20.8359 21.2448 20.0795C20.3846 19.323 19.3246 18.8422 18.1976 18.6975V22.95H17.8355Z" fill="white"/>
</svg>
