<svg width="34" height="34" viewBox="0 0 34 34" fill="none" xmlns="http://www.w3.org/2000/svg">
<rect width="34" height="34" rx="17" fill="#1E1A2F"/>
<path d="M17.8355 22.9498C11.4465 22.9498 7.80223 18.4828 7.65039 11.0498H10.8508C10.9559 16.5055 13.3153 18.8164 15.1841 19.2928V11.0498H18.1976V15.755C20.0431 15.5525 21.982 13.4084 22.6361 11.0498H25.6496C25.4031 12.273 24.9118 13.4312 24.2064 14.4519C23.5009 15.4727 22.5966 16.3339 21.5498 16.9819C22.7182 17.574 23.7502 18.4121 24.5777 19.4408C25.4052 20.4695 26.0094 21.6655 26.3504 22.9498H23.0332C22.7271 21.8343 22.105 20.8357 21.2448 20.0792C20.3846 19.3227 19.3246 18.842 18.1976 18.6973V22.9498H17.8355Z" fill="white"/>
</svg>
