<svg width="34" height="34" viewBox="0 0 34 34" fill="none" xmlns="http://www.w3.org/2000/svg">
<rect width="34" height="34" rx="17" fill="#1E1A2F" fill-opacity="0.6"/>
<path fill-rule="evenodd" clip-rule="evenodd" d="M9.57351 22.9983C9.24008 22.8996 8.93586 22.7242 8.6865 22.4866C8.43715 22.2491 8.24998 21.9565 8.1408 21.6335C7.51687 19.9643 7.33201 12.9939 8.53364 11.6179C8.93356 11.1702 9.4982 10.8946 10.105 10.8509C13.3286 10.5125 23.2882 10.5576 24.4321 10.9637C24.7538 11.0656 25.0478 11.2372 25.2919 11.4658C25.536 11.6943 25.724 11.9738 25.8417 12.2833C26.5234 14.009 26.5465 20.2801 25.7493 21.9381C25.5378 22.3697 25.1837 22.7193 24.7441 22.9306C23.5424 23.5171 11.168 23.5058 9.57351 22.9983ZM14.692 19.7274L20.469 16.7949L14.692 13.8398V19.7274Z" fill="white"/>
</svg>
