<svg width="285" height="74" viewBox="0 0 285 74" fill="none" xmlns="http://www.w3.org/2000/svg">
<path d="M16.7993 42.324V38H5.98925V42.324H1.06725V33.492H3.04525C3.47459 32.94 3.76592 32.342 3.91925 31.698C4.10325 31.054 4.22592 30.2567 4.28725 29.306L5.43725 5.8H19.6053V33.492H21.8133V42.324H16.7993ZM9.25525 29.214C9.19392 30.4407 9.04059 31.3607 8.79525 31.974C8.58059 32.5873 8.25859 33.0933 7.82925 33.492H14.4533V10.4H10.1753L9.25525 29.214ZM32.7282 5.8C35.3655 5.8 37.2669 6.41333 38.4322 7.64C39.6282 8.86667 40.2262 10.722 40.2262 13.206V14.356C40.2262 16.012 39.9655 17.3767 39.4442 18.45C38.9229 19.5233 38.0949 20.3207 36.9602 20.842C38.3402 21.3633 39.3062 22.222 39.8582 23.418C40.4409 24.5833 40.7322 26.0247 40.7322 27.742V30.364C40.7322 32.848 40.0882 34.7493 38.8002 36.068C37.5122 37.356 35.5955 38 33.0502 38H25.0922V5.8H32.7282ZM30.1522 23.51V33.4H33.0502C33.9089 33.4 34.5529 33.17 34.9822 32.71C35.4422 32.25 35.6722 31.422 35.6722 30.226V27.42C35.6722 25.9173 35.4115 24.89 34.8902 24.338C34.3995 23.786 33.5715 23.51 32.4062 23.51H30.1522ZM30.1522 10.4V18.91H32.1302C33.0809 18.91 33.8169 18.6647 34.3382 18.174C34.8902 17.6833 35.1662 16.794 35.1662 15.506V13.712C35.1662 12.5467 34.9515 11.7033 34.5222 11.182C34.1235 10.6607 33.4795 10.4 32.5902 10.4H30.1522ZM48.8857 30.594C48.8857 31.7593 49.1157 32.5873 49.5757 33.078C50.0664 33.538 50.7104 33.768 51.5077 33.768C52.305 33.768 52.9337 33.538 53.3937 33.078C53.8844 32.5873 54.1297 31.7593 54.1297 30.594V13.206C54.1297 12.0407 53.8844 11.228 53.3937 10.768C52.9337 10.2773 52.305 10.032 51.5077 10.032C50.7104 10.032 50.0664 10.2773 49.5757 10.768C49.1157 11.228 48.8857 12.0407 48.8857 13.206V30.594ZM43.8257 13.528C43.8257 10.9213 44.485 8.928 45.8037 7.548C47.1224 6.13733 49.0237 5.432 51.5077 5.432C53.9917 5.432 55.893 6.13733 57.2117 7.548C58.5304 8.928 59.1897 10.9213 59.1897 13.528V30.272C59.1897 32.8787 58.5304 34.8873 57.2117 36.298C55.893 37.678 53.9917 38.368 51.5077 38.368C49.0237 38.368 47.1224 37.678 45.8037 36.298C44.485 34.8873 43.8257 32.8787 43.8257 30.272V13.528ZM70.39 5.8C72.9353 5.8 74.8213 6.47466 76.048 7.824C77.3053 9.17333 77.934 11.1513 77.934 13.758V17.944C77.934 20.5507 77.3053 22.5287 76.048 23.878C74.8213 25.2273 72.9353 25.902 70.39 25.902H67.998V38H62.938V5.8H70.39ZM67.998 10.4V21.302H70.39C71.1873 21.302 71.8006 21.0873 72.23 20.658C72.6593 20.2287 72.874 19.4313 72.874 18.266V13.436C72.874 12.2707 72.6593 11.4733 72.23 11.044C71.8006 10.6147 71.1873 10.4 70.39 10.4H67.998ZM85.7978 19.37H92.7438V23.97H85.7978V33.4H94.5378V38H80.7378V5.8H94.5378V10.4H85.7978V19.37ZM98.1334 5.8H103.193V33.4H108.943V5.8H114.095V33.492H116.303V42.324H111.381V38H98.1334V5.8ZM133.754 25.166L132.19 28.11V38H127.13V5.8H132.19V19.83L138.814 5.8H143.874L136.836 20.152L143.874 38H138.676L133.754 25.166ZM157.86 29.812C157.554 31.2533 157.17 32.526 156.71 33.63C156.281 34.7033 155.683 35.5927 154.916 36.298C154.18 36.9727 153.214 37.4633 152.018 37.77C150.853 38.0767 149.396 38.1687 147.648 38.046V33.538C148.936 33.63 149.948 33.5073 150.684 33.17C151.42 32.8327 151.896 32.0813 152.11 30.916L152.156 30.64L145.164 5.8H150.178L152.938 16.794L154.502 24.338L155.698 16.84L157.998 5.8H163.288L157.86 29.812ZM164.448 33.446C165.03 33.446 165.506 33.4153 165.874 33.354C166.272 33.2927 166.594 33.1547 166.84 32.94C167.085 32.6947 167.254 32.3573 167.346 31.928C167.468 31.468 167.545 30.87 167.576 30.134L168.404 5.8H182.71V38H177.558V10.4H173.142L172.59 29.858C172.498 32.802 171.869 34.9027 170.704 36.16C169.569 37.4173 167.744 38.046 165.23 38.046H164.448V33.446ZM187.043 38V5.8H192.103V17.898H194.495C197.04 17.898 198.926 18.5727 200.153 19.922C201.41 21.2713 202.039 23.2493 202.039 25.856V30.042C202.039 32.6487 201.41 34.6267 200.153 35.976C198.926 37.3253 197.04 38 194.495 38H187.043ZM194.495 33.4C195.292 33.4 195.905 33.1853 196.335 32.756C196.764 32.3267 196.979 31.5293 196.979 30.364V25.534C196.979 24.3687 196.764 23.5713 196.335 23.142C195.905 22.7127 195.292 22.498 194.495 22.498H192.103V33.4H194.495ZM204.044 5.8H219.684V10.4H214.394V38H209.334V10.4H204.044V5.8ZM233.597 29.812C233.29 31.2533 232.907 32.526 232.447 33.63C232.018 34.7033 231.42 35.5927 230.653 36.298C229.917 36.9727 228.951 37.4633 227.755 37.77C226.59 38.0767 225.133 38.1687 223.385 38.046V33.538C224.673 33.63 225.685 33.5073 226.421 33.17C227.157 32.8327 227.632 32.0813 227.847 30.916L227.893 30.64L220.901 5.8H225.915L228.675 16.794L230.239 24.338L231.435 16.84L233.735 5.8H239.025L233.597 29.812ZM249.062 5.8C251.608 5.8 253.494 6.47466 254.72 7.824C255.978 9.17333 256.606 11.1513 256.606 13.758V17.944C256.606 20.5507 255.978 22.5287 254.72 23.878C253.494 25.2273 251.608 25.902 249.062 25.902H246.67V38H241.61V5.8H249.062ZM246.67 10.4V21.302H249.062C249.86 21.302 250.473 21.0873 250.902 20.658C251.332 20.2287 251.546 19.4313 251.546 18.266V13.436C251.546 12.2707 251.332 11.4733 250.902 11.044C250.473 10.6147 249.86 10.4 249.062 10.4H246.67ZM259.41 38V5.8H264.47V17.898H266.862C269.407 17.898 271.293 18.5727 272.52 19.922C273.777 21.2713 274.406 23.2493 274.406 25.856V30.042C274.406 32.6487 273.777 34.6267 272.52 35.976C271.293 37.3253 269.407 38 266.862 38H259.41ZM266.862 33.4C267.659 33.4 268.273 33.1853 268.702 32.756C269.131 32.3267 269.346 31.5293 269.346 30.364V25.534C269.346 24.3687 269.131 23.5713 268.702 23.142C268.273 22.7127 267.659 22.498 266.862 22.498H264.47V33.4H266.862ZM277.304 38V5.8H282.364V38H277.304Z" fill="#FCFCFC"/>
<path d="M8.22181 59.5V60.9146H2.95723V70H1.54264V59.5H8.22181ZM13.8865 70.2188C13.1185 70.2188 12.4039 70.0778 11.7428 69.7958C11.0914 69.5042 10.5567 69.0812 10.1386 68.5271C9.35111 67.5354 8.95736 66.2764 8.95736 64.75C8.95736 63.2139 9.35111 61.9549 10.1386 60.9729C10.5664 60.4187 11.106 60.0007 11.7574 59.7187C12.4185 59.4271 13.1282 59.2812 13.8865 59.2812C15.5101 59.3007 16.7643 59.8646 17.649 60.9729C18.4074 61.9257 18.7962 63.1847 18.8157 64.75C18.8157 66.2958 18.4268 67.5549 17.649 68.5271C16.7546 69.6549 15.5004 70.2188 13.8865 70.2188ZM13.8865 68.8771C14.4212 68.8771 14.9219 68.775 15.3886 68.5708C15.8553 68.3569 16.2296 68.0556 16.5115 67.6667C17.0365 66.9764 17.3087 66.0042 17.3282 64.75C17.3282 63.5056 17.056 62.5333 16.5115 61.8333C16.2296 61.4444 15.8553 61.1479 15.3886 60.9437C14.9219 60.7299 14.4212 60.6278 13.8865 60.6375C13.3615 60.6278 12.8608 60.7299 12.3844 60.9437C11.9178 61.1479 11.5435 61.4444 11.2615 61.8333C10.7365 62.4944 10.4643 63.4667 10.4449 64.75C10.4449 65.9944 10.7171 66.9667 11.2615 67.6667C11.5435 68.0556 11.9178 68.3569 12.3844 68.5708C12.8608 68.7847 13.3615 68.8868 13.8865 68.8771ZM28.4498 62.8396C28.4692 63.5979 28.2213 64.2882 27.7061 64.9104C27.4047 65.2993 27.0206 65.6056 26.554 65.8292C26.0873 66.0528 25.6012 66.1646 25.0956 66.1646H21.9748V70H20.5602V59.5H25.0956C25.4748 59.5 25.8345 59.5632 26.1748 59.6896C26.7776 59.8937 27.2637 60.2292 27.6331 60.6958C28.1776 61.3181 28.4498 62.0326 28.4498 62.8396ZM26.5686 64.0792C26.8699 63.6903 27.0158 63.2771 27.0061 62.8396C26.9866 62.2951 26.8067 61.8382 26.4665 61.4687C26.0679 61.0507 25.6061 60.8417 25.0811 60.8417H21.9748V64.8229H25.0811C25.6838 64.8229 26.1797 64.575 26.5686 64.0792ZM34.3807 70.2188C33.6126 70.2188 32.898 70.0778 32.2369 69.7958C31.5855 69.5042 31.0508 69.0812 30.6327 68.5271C29.8452 67.5354 29.4515 66.2764 29.4515 64.75C29.4515 63.2139 29.8452 61.9549 30.6327 60.9729C31.0605 60.4187 31.6001 60.0007 32.2515 59.7187C32.9126 59.4271 33.6223 59.2812 34.3807 59.2812C36.0043 59.3007 37.2584 59.8646 38.1432 60.9729C38.9015 61.9257 39.2904 63.1847 39.3098 64.75C39.3098 66.2958 38.9209 67.5549 38.1432 68.5271C37.2487 69.6549 35.9946 70.2188 34.3807 70.2188ZM34.3807 68.8771C34.9154 68.8771 35.4161 68.775 35.8827 68.5708C36.3494 68.3569 36.7237 68.0556 37.0057 67.6667C37.5307 66.9764 37.8029 66.0042 37.8223 64.75C37.8223 63.5056 37.5501 62.5333 37.0057 61.8333C36.7237 61.4444 36.3494 61.1479 35.8827 60.9437C35.4161 60.7299 34.9154 60.6278 34.3807 60.6375C33.8557 60.6278 33.355 60.7299 32.8786 60.9437C32.4119 61.1479 32.0376 61.4444 31.7557 61.8333C31.2307 62.4944 30.9584 63.4667 30.939 64.75C30.939 65.9944 31.2112 66.9667 31.7557 67.6667C32.0376 68.0556 32.4119 68.3569 32.8786 68.5708C33.355 68.7847 33.8557 68.8868 34.3807 68.8771ZM49.2693 68.6583H50.0568V71.2542H48.7152V70H41.3798V71.2542H40.0527V68.6583C41.0152 68.6583 41.6131 67.6764 41.8464 65.7125L42.561 59.5H49.2693V68.6583ZM47.9277 68.6583V60.8417H43.7714L43.1735 65.8729C43.0179 67.2146 42.6971 68.1431 42.211 68.6583H47.9277ZM59.505 66.5L60.905 66.8937C60.7397 67.4965 60.4627 68.041 60.0738 68.5271C59.1696 69.6549 57.9154 70.2188 56.3113 70.2188C54.7071 70.2188 53.4529 69.6549 52.5488 68.5271C51.7418 67.516 51.3481 66.2569 51.3675 64.75C51.387 63.2042 51.7807 61.9451 52.5488 60.9729C53.4335 59.8451 54.6877 59.2812 56.3113 59.2812C57.0696 59.2812 57.7745 59.4271 58.4258 59.7187C59.087 60.0007 59.6363 60.4187 60.0738 60.9729C60.4821 61.4979 60.7932 62.1347 61.0071 62.8833L59.5488 63.1312C59.4127 62.6257 59.2133 62.1931 58.9508 61.8333C58.6495 61.4444 58.2654 61.1479 57.7988 60.9437C57.3321 60.7299 56.8363 60.6229 56.3113 60.6229C55.7765 60.6229 55.2758 60.7299 54.8092 60.9437C54.3425 61.1479 53.9682 61.4444 53.6863 61.8333C53.1613 62.4944 52.889 63.4667 52.8696 64.75C52.889 66.0236 53.1613 66.9958 53.6863 67.6667C53.9682 68.0556 54.3425 68.3569 54.8092 68.5708C55.2758 68.775 55.7765 68.8771 56.3113 68.8771C56.8363 68.8868 57.3321 68.7896 57.7988 68.5854C58.2654 68.3715 58.6495 68.0653 58.9508 67.6667C59.2036 67.3069 59.3883 66.9181 59.505 66.5ZM66.3975 65.1146H64.1808V70H62.7516V59.5H64.1808V63.9625H66.3975L69.212 59.5H70.9037L67.637 64.5312L71.1954 70H69.4891L66.3975 65.1146ZM76.2713 70.2188C75.5032 70.2188 74.7887 70.0778 74.1275 69.7958C73.4762 69.5042 72.9414 69.0812 72.5234 68.5271C71.7359 67.5354 71.3421 66.2764 71.3421 64.75C71.3421 63.2139 71.7359 61.9549 72.5234 60.9729C72.9512 60.4187 73.4907 60.0007 74.1421 59.7187C74.8032 59.4271 75.513 59.2812 76.2713 59.2812C77.8949 59.3007 79.1491 59.8646 80.0338 60.9729C80.7921 61.9257 81.181 63.1847 81.2005 64.75C81.2005 66.2958 80.8116 67.5549 80.0338 68.5271C79.1393 69.6549 77.8852 70.2188 76.2713 70.2188ZM76.2713 68.8771C76.806 68.8771 77.3067 68.775 77.7734 68.5708C78.24 68.3569 78.6143 68.0556 78.8963 67.6667C79.4213 66.9764 79.6935 66.0042 79.713 64.75C79.713 63.5056 79.4407 62.5333 78.8963 61.8333C78.6143 61.4444 78.24 61.1479 77.7734 60.9437C77.3067 60.7299 76.806 60.6278 76.2713 60.6375C75.7463 60.6278 75.2456 60.7299 74.7692 60.9437C74.3025 61.1479 73.9282 61.4444 73.6463 61.8333C73.1213 62.4944 72.8491 63.4667 72.8296 64.75C72.8296 65.9944 73.1018 66.9667 73.6463 67.6667C73.9282 68.0556 74.3025 68.3569 74.7692 68.5708C75.2456 68.7847 75.7463 68.8868 76.2713 68.8771ZM89.6242 59.5V60.9146H84.3596V70H82.945V59.5H89.6242ZM95.2889 70.2188C94.5208 70.2188 93.8062 70.0778 93.1451 69.7958C92.4937 69.5042 91.959 69.0812 91.541 68.5271C90.7535 67.5354 90.3597 66.2764 90.3597 64.75C90.3597 63.2139 90.7535 61.9549 91.541 60.9729C91.9687 60.4187 92.5083 60.0007 93.1597 59.7187C93.8208 59.4271 94.5305 59.2812 95.2889 59.2812C96.9125 59.3007 98.1666 59.8646 99.0514 60.9729C99.8097 61.9257 100.199 63.1847 100.218 64.75C100.218 66.2958 99.8291 67.5549 99.0514 68.5271C98.1569 69.6549 96.9028 70.2188 95.2889 70.2188ZM95.2889 68.8771C95.8236 68.8771 96.3243 68.775 96.791 68.5708C97.2576 68.3569 97.6319 68.0556 97.9139 67.6667C98.4389 66.9764 98.7111 66.0042 98.7305 64.75C98.7305 63.5056 98.4583 62.5333 97.9139 61.8333C97.6319 61.4444 97.2576 61.1479 96.791 60.9437C96.3243 60.7299 95.8236 60.6278 95.2889 60.6375C94.7639 60.6278 94.2632 60.7299 93.7868 60.9437C93.3201 61.1479 92.9458 61.4444 92.6639 61.8333C92.1389 62.4944 91.8666 63.4667 91.8472 64.75C91.8472 65.9944 92.1194 66.9667 92.6639 67.6667C92.9458 68.0556 93.3201 68.3569 93.7868 68.5708C94.2632 68.7847 94.7639 68.8868 95.2889 68.8771ZM109.467 70.2188C108.699 70.2188 107.984 70.0778 107.323 69.7958C106.671 69.5042 106.137 69.0812 105.719 68.5271C104.931 67.5354 104.537 66.2764 104.537 64.75C104.537 63.2139 104.931 61.9549 105.719 60.9729C106.146 60.4187 106.686 60.0007 107.337 59.7187C107.999 59.4271 108.708 59.2812 109.467 59.2812C111.09 59.3007 112.344 59.8646 113.229 60.9729C113.987 61.9257 114.376 63.1847 114.396 64.75C114.396 66.2958 114.007 67.5549 113.229 68.5271C112.335 69.6549 111.08 70.2188 109.467 70.2188ZM109.467 68.8771C110.001 68.8771 110.502 68.775 110.969 68.5708C111.435 68.3569 111.81 68.0556 112.092 67.6667C112.617 66.9764 112.889 66.0042 112.908 64.75C112.908 63.5056 112.636 62.5333 112.092 61.8333C111.81 61.4444 111.435 61.1479 110.969 60.9437C110.502 60.7299 110.001 60.6278 109.467 60.6375C108.942 60.6278 108.441 60.7299 107.965 60.9437C107.498 61.1479 107.124 61.4444 106.842 61.8333C106.317 62.4944 106.044 63.4667 106.025 64.75C106.025 65.9944 106.297 66.9667 106.842 67.6667C107.124 68.0556 107.498 68.3569 107.965 68.5708C108.441 68.7847 108.942 68.8868 109.467 68.8771ZM119.786 65.1146H117.569V70H116.14V59.5H117.569V63.9625H119.786L122.601 59.5H124.292L121.026 64.5312L124.584 70H122.878L119.786 65.1146ZM133.641 62.8396C133.661 63.5979 133.413 64.2882 132.897 64.9104C132.596 65.2993 132.212 65.6056 131.745 65.8292C131.279 66.0528 130.793 66.1646 130.287 66.1646H127.166V70H125.752V59.5H130.287C130.666 59.5 131.026 59.5632 131.366 59.6896C131.969 59.8937 132.455 60.2292 132.825 60.6958C133.369 61.3181 133.641 62.0326 133.641 62.8396ZM131.76 64.0792C132.061 63.6903 132.207 63.2771 132.197 62.8396C132.178 62.2951 131.998 61.8382 131.658 61.4687C131.259 61.0507 130.797 60.8417 130.272 60.8417H127.166V64.8229H130.272C130.875 64.8229 131.371 64.575 131.76 64.0792ZM141.716 59.5H143.174L139.105 68.2208C138.668 69.0958 138.196 69.6743 137.691 69.9562C137.341 70.1312 136.942 70.2188 136.495 70.2188C136.135 70.2188 135.751 70.1458 135.343 70L135.81 68.7604C136.053 68.8576 136.281 68.9062 136.495 68.9062C136.767 68.9062 136.976 68.8625 137.122 68.775C137.433 68.6 137.749 68.1674 138.07 67.4771L134.351 59.5H135.795L138.755 65.9896L141.716 59.5ZM151.161 59.5V60.9146H145.897V70H144.482V59.5H151.161ZM158.566 70L157.924 68.0896H153.185L152.558 70H151.099L154.556 59.5H156.568L160.024 70H158.566ZM153.622 66.7625H157.487L155.547 60.9583L153.622 66.7625ZM175.601 68.5854H176.884V71.2542H175.47V70H164.416V59.5H165.83V68.5854H169.301V59.5H170.716V68.5854H174.187V59.5H175.601V68.5854ZM185.241 60.9146H180.049V64.05H184.366V65.45H180.049V68.5854H185.241V70H178.634V59.5H185.241V60.9146ZM195.178 62.8396C195.198 63.5979 194.95 64.2882 194.435 64.9104C194.133 65.2993 193.749 65.6056 193.282 65.8292C192.816 66.0528 192.33 66.1646 191.824 66.1646H188.703V70H187.289V59.5H191.824C192.203 59.5 192.563 59.5632 192.903 59.6896C193.506 59.8937 193.992 60.2292 194.362 60.6958C194.906 61.3181 195.178 62.0326 195.178 62.8396ZM193.297 64.0792C193.598 63.6903 193.744 63.2771 193.735 62.8396C193.715 62.2951 193.535 61.8382 193.195 61.4687C192.796 61.0507 192.335 60.8417 191.81 60.8417H188.703V64.8229H191.81C192.412 64.8229 192.908 64.575 193.297 64.0792ZM203.909 64.575C204.415 65.2167 204.663 65.9118 204.653 66.6604C204.653 67.4674 204.381 68.1819 203.836 68.8042C203.467 69.2708 202.981 69.6062 202.378 69.8104C202.038 69.9368 201.678 70 201.299 70H196.763V59.5H203.574V60.9146H198.178V63.3354H201.299C201.804 63.3354 202.29 63.4472 202.757 63.6708C203.224 63.8944 203.608 64.1958 203.909 64.575ZM203.209 66.6604C203.219 66.2229 203.073 65.8097 202.772 65.4208C202.373 64.9153 201.877 64.6625 201.284 64.6625H198.178V68.6583H201.284C201.809 68.6583 202.271 68.4493 202.67 68.0312C203.01 67.6618 203.19 67.2049 203.209 66.6604ZM212.99 59.5H214.244V70H212.8V62.0958L207.507 70H206.238V59.5H207.667V67.4042L212.99 59.5ZM223.37 59.5H224.784V70H223.37V66.2083H217.988V70H216.574V59.5H217.988V64.8083H223.37V59.5ZM230.761 65.1146H228.544V70H227.115V59.5H228.544V63.9625H230.761L233.575 59.5H235.267L232 64.5312L235.559 70H233.852L230.761 65.1146ZM243.099 70L242.457 68.0896H237.718L237.091 70H235.632L239.089 59.5H241.101L244.557 70H243.099ZM238.155 66.7625H242.02L240.08 60.9583L238.155 66.7625Z" fill="#FCFCFC"/>
</svg>
