<svg width="210" height="51" viewBox="0 0 210 51" fill="none" xmlns="http://www.w3.org/2000/svg">
<g id="Group 457">
<g id="&#208;&#148;&#208;&#178;&#208;&#190;&#209;&#128;&#208;&#181;&#209;&#134; &#208;&#186;&#209;&#131;&#208;&#187;&#209;&#140;&#209;&#130;&#209;&#131;&#209;&#128;&#209;&#139;">
<path d="M11.7446 28.4719V25.2438H3.67448V28.4719H0V21.8784H1.47666C1.79718 21.4663 2.01467 21.0199 2.12914 20.5391C2.2665 20.0583 2.35808 19.4631 2.40387 18.7534L3.26239 1.20515H13.8394V21.8784H15.4878V28.4719H11.7446ZM6.11269 18.6847C6.0669 19.6005 5.95243 20.2873 5.76928 20.7451C5.60902 21.203 5.36864 21.5808 5.04812 21.8784H9.99322V4.63924H6.79951L6.11269 18.6847Z" fill="#1E1A2F"/>
<path d="M23.6362 1.20515C25.6051 1.20515 27.0245 1.66303 27.8945 2.57878C28.7874 3.49454 29.2338 4.87963 29.2338 6.73404V7.59256C29.2338 8.82884 29.0392 9.84762 28.65 10.6489C28.2608 11.4502 27.6427 12.0454 26.7956 12.4346C27.8258 12.8238 28.547 13.4649 28.9591 14.3577C29.3941 15.2277 29.6116 16.3037 29.6116 17.5858V19.5432C29.6116 21.3976 29.1308 22.8171 28.1692 23.8015C27.2077 24.763 25.7768 25.2438 23.8766 25.2438H17.9356V1.20515H23.6362ZM21.7131 14.4264V21.8097H23.8766C24.5176 21.8097 24.9984 21.638 25.3189 21.2946C25.6623 20.9512 25.8341 20.3331 25.8341 19.4402V17.3454C25.8341 16.2236 25.6395 15.4566 25.2503 15.0446C24.884 14.6325 24.2658 14.4264 23.3958 14.4264H21.7131ZM21.7131 4.63924V10.9923H23.1898C23.8995 10.9923 24.449 10.8092 24.8382 10.4429C25.2503 10.0766 25.4563 9.41263 25.4563 8.45109V7.11179C25.4563 6.24182 25.296 5.61224 24.9755 5.22304C24.6779 4.83384 24.1971 4.63924 23.5332 4.63924H21.7131Z" fill="#1E1A2F"/>
<path d="M35.6985 19.7149C35.6985 20.5849 35.8702 21.203 36.2136 21.5693C36.5799 21.9127 37.0607 22.0844 37.6559 22.0844C38.2512 22.0844 38.7205 21.9127 39.0639 21.5693C39.4302 21.203 39.6134 20.5849 39.6134 19.7149V6.73404C39.6134 5.86407 39.4302 5.25738 39.0639 4.91397C38.7205 4.54767 38.2512 4.36451 37.6559 4.36451C37.0607 4.36451 36.5799 4.54767 36.2136 4.91397C35.8702 5.25738 35.6985 5.86407 35.6985 6.73404V19.7149ZM31.921 6.97443C31.921 5.02844 32.4132 3.54033 33.3976 2.5101C34.3821 1.45698 35.8015 0.93042 37.6559 0.93042C39.5103 0.93042 40.9298 1.45698 41.9142 2.5101C42.8986 3.54033 43.3909 5.02844 43.3909 6.97443V19.4745C43.3909 21.4205 42.8986 22.9201 41.9142 23.9732C40.9298 25.0034 39.5103 25.5185 37.6559 25.5185C35.8015 25.5185 34.3821 25.0034 33.3976 23.9732C32.4132 22.9201 31.921 21.4205 31.921 19.4745V6.97443Z" fill="#1E1A2F"/>
<path d="M51.7524 1.20515C53.6525 1.20515 55.0605 1.70881 55.9763 2.71615C56.9149 3.72348 57.3843 5.20014 57.3843 7.14613V10.2712C57.3843 12.2171 56.9149 13.6938 55.9763 14.7011C55.0605 15.7085 53.6525 16.2121 51.7524 16.2121H49.9666V25.2438H46.1891V1.20515H51.7524ZM49.9666 4.63924V12.778H51.7524C52.3476 12.778 52.8055 12.6178 53.126 12.2973C53.4465 11.9768 53.6068 11.3815 53.6068 10.5115V6.90575C53.6068 6.03577 53.4465 5.44053 53.126 5.12002C52.8055 4.7995 52.3476 4.63924 51.7524 4.63924H49.9666Z" fill="#1E1A2F"/>
<path d="M63.255 11.3357H68.4404V14.7698H63.255V21.8097H69.7797V25.2438H59.4775V1.20515H69.7797V4.63924H63.255V11.3357Z" fill="#1E1A2F"/>
<path d="M72.464 1.20515H76.2415V21.8097H80.5341V1.20515H84.3803V21.8784H86.0286V28.4719H82.3542V25.2438H72.464V1.20515Z" fill="#1E1A2F"/>
<path d="M99.0559 15.6627L97.8883 17.8605V25.2438H94.1108V1.20515H97.8883V11.6791L102.833 1.20515H106.611L101.357 11.9195L106.611 25.2438H102.73L99.0559 15.6627Z" fill="#1E1A2F"/>
<path d="M117.053 19.1311C116.824 20.2071 116.538 21.1572 116.194 21.9814C115.874 22.7827 115.427 23.4466 114.855 23.9732C114.305 24.4769 113.584 24.8432 112.691 25.0721C111.821 25.3011 110.734 25.3697 109.429 25.2782V21.9127C110.391 21.9814 111.146 21.8898 111.696 21.638C112.245 21.3862 112.6 20.8253 112.76 19.9553L112.794 19.7493L107.575 1.20515H111.318L113.378 9.41263L114.546 15.0446L115.439 9.44698L117.156 1.20515H121.105L117.053 19.1311Z" fill="#1E1A2F"/>
<path d="M121.97 21.8441C122.405 21.8441 122.76 21.8212 123.035 21.7754C123.333 21.7296 123.573 21.6266 123.756 21.4663C123.939 21.2832 124.065 21.0313 124.134 20.7108C124.226 20.3674 124.283 19.921 124.306 19.3715L124.924 1.20515H135.604V25.2438H131.758V4.63924H128.461L128.049 19.1655C127.98 21.3633 127.511 22.9315 126.641 23.8702C125.794 24.8088 124.432 25.2782 122.554 25.2782H121.97V21.8441Z" fill="#1E1A2F"/>
<path d="M138.839 25.2438V1.20515H142.616V10.2368H144.402C146.302 10.2368 147.71 10.7405 148.626 11.7478C149.564 12.7552 150.034 14.2318 150.034 16.1778V19.3028C150.034 21.2488 149.564 22.7255 148.626 23.7328C147.71 24.7401 146.302 25.2438 144.402 25.2438H138.839ZM144.402 21.8097C144.997 21.8097 145.455 21.6495 145.775 21.3289C146.096 21.0084 146.256 20.4132 146.256 19.5432V15.9374C146.256 15.0674 146.096 14.4722 145.775 14.1517C145.455 13.8312 144.997 13.6709 144.402 13.6709H142.616V21.8097H144.402Z" fill="#1E1A2F"/>
<path d="M151.531 1.20515H163.207V4.63924H159.258V25.2438H155.48V4.63924H151.531V1.20515Z" fill="#1E1A2F"/>
<path d="M173.593 19.1311C173.364 20.2071 173.078 21.1572 172.735 21.9814C172.414 22.7827 171.968 23.4466 171.395 23.9732C170.846 24.4769 170.125 24.8432 169.232 25.0721C168.362 25.3011 167.275 25.3697 165.97 25.2782V21.9127C166.931 21.9814 167.687 21.8898 168.236 21.638C168.785 21.3862 169.14 20.8253 169.301 19.9553L169.335 19.7493L164.115 1.20515H167.858L169.919 9.41263L171.086 15.0446L171.979 9.44698L173.696 1.20515H177.645L173.593 19.1311Z" fill="#1E1A2F"/>
<path d="M185.139 1.20515C187.039 1.20515 188.447 1.70881 189.363 2.71615C190.301 3.72348 190.771 5.20014 190.771 7.14613V10.2712C190.771 12.2171 190.301 13.6938 189.363 14.7011C188.447 15.7085 187.039 16.2121 185.139 16.2121H183.353V25.2438H179.576V1.20515H185.139ZM183.353 4.63924V12.778H185.139C185.734 12.778 186.192 12.6178 186.512 12.2973C186.833 11.9768 186.993 11.3815 186.993 10.5115V6.90575C186.993 6.03577 186.833 5.44053 186.512 5.12002C186.192 4.7995 185.734 4.63924 185.139 4.63924H183.353Z" fill="#1E1A2F"/>
<path d="M192.864 25.2438V1.20515H196.641V10.2368H198.427C200.327 10.2368 201.735 10.7405 202.651 11.7478C203.59 12.7552 204.059 14.2318 204.059 16.1778V19.3028C204.059 21.2488 203.59 22.7255 202.651 23.7328C201.735 24.7401 200.327 25.2438 198.427 25.2438H192.864ZM198.427 21.8097C199.022 21.8097 199.48 21.6495 199.801 21.3289C200.121 21.0084 200.282 20.4132 200.282 19.5432V15.9374C200.282 15.0674 200.121 14.4722 199.801 14.1517C199.48 13.8312 199.022 13.6709 198.427 13.6709H196.641V21.8097H198.427ZM206.222 25.2438V1.20515H210V25.2438H206.222Z" fill="#1E1A2F"/>
</g>
<g id="&#208;&#179;&#208;&#190;&#209;&#128;&#208;&#190;&#208;&#180;&#209;&#129;&#208;&#186;&#208;&#190;&#208;&#179;&#208;&#190; &#208;&#190;&#208;&#186;&#209;&#128;&#209;&#131;&#208;&#179;&#208;&#176; &#209;&#137;&#208;&#181;&#209;&#128;&#208;&#177;&#208;&#184;&#208;&#189;&#208;&#186;&#208;&#176;">
<path d="M5.34175 41.2944V42.3505H1.41152V49.1331H0.355469V41.2944H5.34175Z" fill="#1E1A2F"/>
<path d="M9.5707 49.2964C8.99731 49.2964 8.46385 49.1912 7.9703 48.9807C7.48401 48.7629 7.08482 48.4472 6.77272 48.0335C6.18482 47.2932 5.89087 46.3533 5.89087 45.2138C5.89087 44.067 6.18482 43.1271 6.77272 42.394C7.09207 41.9803 7.4949 41.6682 7.98119 41.4577C8.47473 41.24 9.00457 41.1311 9.5707 41.1311C10.7828 41.1456 11.7191 41.5666 12.3796 42.394C12.9457 43.1053 13.236 44.0452 13.2505 45.2138C13.2505 46.3678 12.9602 47.3077 12.3796 48.0335C11.7118 48.8754 10.7755 49.2964 9.5707 49.2964ZM9.5707 48.2948C9.96989 48.2948 10.3437 48.2186 10.6921 48.0662C11.0405 47.9065 11.3199 47.6815 11.5304 47.3912C11.9223 46.8759 12.1255 46.15 12.14 45.2138C12.14 44.2847 11.9368 43.5589 11.5304 43.0363C11.3199 42.746 11.0405 42.5246 10.6921 42.3722C10.3437 42.2126 9.96989 42.1363 9.5707 42.1436C9.17877 42.1363 8.80497 42.2126 8.44933 42.3722C8.10094 42.5246 7.82151 42.746 7.61103 43.0363C7.21909 43.5299 7.01587 44.2557 7.00135 45.2138C7.00135 46.1428 7.20458 46.8686 7.61103 47.3912C7.82151 47.6815 8.10094 47.9065 8.44933 48.0662C8.80497 48.2258 9.17877 48.3021 9.5707 48.2948Z" fill="#1E1A2F"/>
<path d="M20.4428 43.7876C20.4573 44.3537 20.2722 44.869 19.8876 45.3335C19.6626 45.6238 19.3759 45.8525 19.0275 46.0194C18.6791 46.1863 18.3162 46.2698 17.9388 46.2698H15.6089V49.1331H14.5529V41.2944H17.9388C18.2218 41.2944 18.4904 41.3416 18.7444 41.4359C19.1944 41.5884 19.5573 41.8388 19.8331 42.1872C20.2396 42.6517 20.4428 43.1851 20.4428 43.7876ZM19.0384 44.713C19.2634 44.4226 19.3722 44.1142 19.365 43.7876C19.3505 43.3811 19.2162 43.04 18.9622 42.7642C18.6646 42.4521 18.3198 42.296 17.9279 42.296H15.6089V45.2682H17.9279C18.3779 45.2682 18.7481 45.0831 19.0384 44.713Z" fill="#1E1A2F"/>
<path d="M24.8704 49.2964C24.2971 49.2964 23.7636 49.1912 23.27 48.9807C22.7838 48.7629 22.3846 48.4472 22.0725 48.0335C21.4846 47.2932 21.1906 46.3533 21.1906 45.2138C21.1906 44.067 21.4846 43.1271 22.0725 42.394C22.3918 41.9803 22.7946 41.6682 23.2809 41.4577C23.7745 41.24 24.3043 41.1311 24.8704 41.1311C26.0825 41.1456 27.0188 41.5666 27.6793 42.394C28.2454 43.1053 28.5358 44.0452 28.5503 45.2138C28.5503 46.3678 28.26 47.3077 27.6793 48.0335C27.0116 48.8754 26.0753 49.2964 24.8704 49.2964ZM24.8704 48.2948C25.2696 48.2948 25.6434 48.2186 25.9918 48.0662C26.3402 47.9065 26.6196 47.6815 26.8301 47.3912C27.2221 46.8759 27.4253 46.15 27.4398 45.2138C27.4398 44.2847 27.2366 43.5589 26.8301 43.0363C26.6196 42.746 26.3402 42.5246 25.9918 42.3722C25.6434 42.2126 25.2696 42.1363 24.8704 42.1436C24.4785 42.1363 24.1047 42.2126 23.7491 42.3722C23.4007 42.5246 23.1213 42.746 22.9108 43.0363C22.5188 43.5299 22.3156 44.2557 22.3011 45.2138C22.3011 46.1428 22.5043 46.8686 22.9108 47.3912C23.1213 47.6815 23.4007 47.9065 23.7491 48.0662C24.1047 48.2258 24.4785 48.3021 24.8704 48.2948Z" fill="#1E1A2F"/>
<path d="M35.9855 48.1315H36.5734V50.0694H35.5718V49.1331H30.0956V50.0694H29.1048V48.1315C29.8234 48.1315 30.2698 47.3984 30.4439 45.9323L30.9774 41.2944H35.9855V48.1315ZM34.9839 48.1315V42.296H31.881L31.4347 46.0521C31.3185 47.0537 31.079 47.7468 30.7161 48.1315H34.9839Z" fill="#1E1A2F"/>
<path d="M43.6268 46.5202L44.672 46.8142C44.5486 47.2642 44.3418 47.6706 44.0514 48.0335C43.3764 48.8754 42.4401 49.2964 41.2426 49.2964C40.045 49.2964 39.1087 48.8754 38.4337 48.0335C37.8313 47.2787 37.5373 46.3388 37.5518 45.2138C37.5664 44.0597 37.8603 43.1198 38.4337 42.394C39.0942 41.5521 40.0305 41.1311 41.2426 41.1311C41.8087 41.1311 42.3349 41.24 42.8212 41.4577C43.3147 41.6682 43.7248 41.9803 44.0514 42.394C44.3563 42.7859 44.5885 43.2613 44.7482 43.8202L43.6595 44.0053C43.5579 43.6279 43.4091 43.3049 43.2131 43.0363C42.9881 42.746 42.7014 42.5246 42.3531 42.3722C42.0047 42.2126 41.6345 42.1327 41.2426 42.1327C40.8434 42.1327 40.4696 42.2126 40.1212 42.3722C39.7728 42.5246 39.4934 42.746 39.2829 43.0363C38.891 43.5299 38.6877 44.2557 38.6732 45.2138C38.6877 46.1646 38.891 46.8904 39.2829 47.3912C39.4934 47.6815 39.7728 47.9065 40.1212 48.0662C40.4696 48.2186 40.8434 48.2948 41.2426 48.2948C41.6345 48.3021 42.0047 48.2295 42.3531 48.0771C42.7014 47.9174 42.9881 47.6888 43.2131 47.3912C43.4018 47.1226 43.5397 46.8323 43.6268 46.5202Z" fill="#1E1A2F"/>
<path d="M48.7723 45.4859H47.1175V49.1331H46.0506V41.2944H47.1175V44.6259H48.7723L50.8736 41.2944H52.1365L49.6977 45.0505L52.3542 49.1331H51.0804L48.7723 45.4859Z" fill="#1E1A2F"/>
<path d="M56.1436 49.2964C55.5702 49.2964 55.0367 49.1912 54.5432 48.9807C54.0569 48.7629 53.6577 48.4472 53.3456 48.0335C52.7577 47.2932 52.4637 46.3533 52.4637 45.2138C52.4637 44.067 52.7577 43.1271 53.3456 42.394C53.665 41.9803 54.0678 41.6682 54.5541 41.4577C55.0476 41.24 55.5774 41.1311 56.1436 41.1311C57.3557 41.1456 58.292 41.5666 58.9524 42.394C59.5186 43.1053 59.8089 44.0452 59.8234 45.2138C59.8234 46.3678 59.5331 47.3077 58.9524 48.0335C58.2847 48.8754 57.3484 49.2964 56.1436 49.2964ZM56.1436 48.2948C56.5428 48.2948 56.9166 48.2186 57.2649 48.0662C57.6133 47.9065 57.8928 47.6815 58.1032 47.3912C58.4952 46.8759 58.6984 46.15 58.7129 45.2138C58.7129 44.2847 58.5097 43.5589 58.1032 43.0363C57.8928 42.746 57.6133 42.5246 57.2649 42.3722C56.9166 42.2126 56.5428 42.1363 56.1436 42.1436C55.7516 42.1363 55.3778 42.2126 55.0222 42.3722C54.6738 42.5246 54.3944 42.746 54.1839 43.0363C53.792 43.5299 53.5887 44.2557 53.5742 45.2138C53.5742 46.1428 53.7775 46.8686 54.1839 47.3912C54.3944 47.6815 54.6738 47.9065 55.0222 48.0662C55.3778 48.2258 55.7516 48.3021 56.1436 48.2948Z" fill="#1E1A2F"/>
<path d="M66.1121 41.2944V42.3505H62.1818V49.1331H61.1258V41.2944H66.1121Z" fill="#1E1A2F"/>
<path d="M70.341 49.2964C69.7676 49.2964 69.2341 49.1912 68.7406 48.9807C68.2543 48.7629 67.8551 48.4472 67.543 48.0335C66.9551 47.2932 66.6612 46.3533 66.6612 45.2138C66.6612 44.067 66.9551 43.1271 67.543 42.394C67.8624 41.9803 68.2652 41.6682 68.7515 41.4577C69.245 41.24 69.7749 41.1311 70.341 41.1311C71.5531 41.1456 72.4894 41.5666 73.1499 42.394C73.716 43.1053 74.0063 44.0452 74.0208 45.2138C74.0208 46.3678 73.7305 47.3077 73.1499 48.0335C72.4821 48.8754 71.5458 49.2964 70.341 49.2964ZM70.341 48.2948C70.7402 48.2948 71.114 48.2186 71.4624 48.0662C71.8108 47.9065 72.0902 47.6815 72.3007 47.3912C72.6926 46.8759 72.8958 46.15 72.9104 45.2138C72.9104 44.2847 72.7071 43.5589 72.3007 43.0363C72.0902 42.746 71.8108 42.5246 71.4624 42.3722C71.114 42.2126 70.7402 42.1363 70.341 42.1436C69.9491 42.1363 69.5753 42.2126 69.2196 42.3722C68.8712 42.5246 68.5918 42.746 68.3813 43.0363C67.9894 43.5299 67.7862 44.2557 67.7717 45.2138C67.7717 46.1428 67.9749 46.8686 68.3813 47.3912C68.5918 47.6815 68.8712 47.9065 69.2196 48.0662C69.5753 48.2258 69.9491 48.3021 70.341 48.2948Z" fill="#1E1A2F"/>
<path d="M80.9253 49.2964C80.3519 49.2964 79.8184 49.1912 79.3249 48.9807C78.8386 48.7629 78.4394 48.4472 78.1273 48.0335C77.5394 47.2932 77.2455 46.3533 77.2455 45.2138C77.2455 44.067 77.5394 43.1271 78.1273 42.394C78.4467 41.9803 78.8495 41.6682 79.3358 41.4577C79.8293 41.24 80.3592 41.1311 80.9253 41.1311C82.1374 41.1456 83.0737 41.5666 83.7342 42.394C84.3003 43.1053 84.5906 44.0452 84.6051 45.2138C84.6051 46.3678 84.3148 47.3077 83.7342 48.0335C83.0664 48.8754 82.1301 49.2964 80.9253 49.2964ZM80.9253 48.2948C81.3245 48.2948 81.6983 48.2186 82.0467 48.0662C82.395 47.9065 82.6745 47.6815 82.885 47.3912C83.2769 46.8759 83.4801 46.15 83.4946 45.2138C83.4946 44.2847 83.2914 43.5589 82.885 43.0363C82.6745 42.746 82.395 42.5246 82.0467 42.3722C81.6983 42.2126 81.3245 42.1363 80.9253 42.1436C80.5333 42.1363 80.1596 42.2126 79.8039 42.3722C79.4555 42.5246 79.1761 42.746 78.9656 43.0363C78.5737 43.5299 78.3705 44.2557 78.3559 45.2138C78.3559 46.1428 78.5592 46.8686 78.9656 47.3912C79.1761 47.6815 79.4555 47.9065 79.8039 48.0662C80.1596 48.2258 80.5333 48.3021 80.9253 48.2948Z" fill="#1E1A2F"/>
<path d="M88.6293 45.4859H86.9744V49.1331H85.9075V41.2944H86.9744V44.6259H88.6293L90.7305 41.2944H91.9934L89.5547 45.0505L92.2111 49.1331H90.9373L88.6293 45.4859Z" fill="#1E1A2F"/>
<path d="M98.9727 43.7876C98.9872 44.3537 98.8021 44.869 98.4174 45.3335C98.1924 45.6238 97.9057 45.8525 97.5573 46.0194C97.2089 46.1863 96.846 46.2698 96.4686 46.2698H94.1388V49.1331H93.0827V41.2944H96.4686C96.7517 41.2944 97.0202 41.3416 97.2743 41.4359C97.7243 41.5884 98.0872 41.8388 98.363 42.1872C98.7694 42.6517 98.9727 43.1851 98.9727 43.7876ZM97.5682 44.713C97.7932 44.4226 97.9021 44.1142 97.8948 43.7876C97.8803 43.3811 97.746 43.04 97.492 42.7642C97.1944 42.4521 96.8497 42.296 96.4577 42.296H94.1388V45.2682H96.4577C96.9077 45.2682 97.2779 45.0831 97.5682 44.713Z" fill="#1E1A2F"/>
<path d="M105.001 41.2944H106.089L103.052 47.8049C102.725 48.4581 102.373 48.89 101.996 49.1004C101.735 49.2311 101.437 49.2964 101.103 49.2964C100.835 49.2964 100.548 49.242 100.243 49.1331L100.591 48.2077C100.773 48.2803 100.943 48.3166 101.103 48.3166C101.306 48.3166 101.462 48.2839 101.571 48.2186C101.804 48.0879 102.039 47.765 102.279 47.2496L99.5027 41.2944H100.581L102.791 46.1392L105.001 41.2944Z" fill="#1E1A2F"/>
<path d="M112.052 41.2944V42.3505H108.122V49.1331H107.066V41.2944H112.052Z" fill="#1E1A2F"/>
<path d="M117.58 49.1331L117.101 47.7069H113.563L113.095 49.1331H112.006L114.586 41.2944H116.089L118.669 49.1331H117.58ZM113.889 46.7162H116.774L115.326 42.3831L113.889 46.7162Z" fill="#1E1A2F"/>
<path d="M130.298 48.0771H131.256V50.0694H130.2V49.1331H121.947V41.2944H123.003V48.0771H125.594V41.2944H126.65V48.0771H129.241V41.2944H130.298V48.0771Z" fill="#1E1A2F"/>
<path d="M137.494 42.3505H133.618V44.6912H136.841V45.7363H133.618V48.0771H137.494V49.1331H132.562V41.2944H137.494V42.3505Z" fill="#1E1A2F"/>
<path d="M144.913 43.7876C144.927 44.3537 144.742 44.869 144.357 45.3335C144.132 45.6238 143.846 45.8525 143.497 46.0194C143.149 46.1863 142.786 46.2698 142.409 46.2698H140.079V49.1331H139.023V41.2944H142.409C142.692 41.2944 142.96 41.3416 143.214 41.4359C143.664 41.5884 144.027 41.8388 144.303 42.1872C144.71 42.6517 144.913 43.1851 144.913 43.7876ZM143.508 44.713C143.733 44.4226 143.842 44.1142 143.835 43.7876C143.82 43.3811 143.686 43.04 143.432 42.7642C143.135 42.4521 142.79 42.296 142.398 42.296H140.079V45.2682H142.398C142.848 45.2682 143.218 45.0831 143.508 44.713Z" fill="#1E1A2F"/>
<path d="M151.431 45.0831C151.808 45.5621 151.993 46.0811 151.986 46.64C151.986 47.2424 151.783 47.7759 151.376 48.2404C151.1 48.5888 150.738 48.8392 150.288 48.9916C150.033 49.0859 149.765 49.1331 149.482 49.1331H146.096V41.2944H151.18V42.3505H147.152V44.1577H149.482C149.859 44.1577 150.222 44.2412 150.571 44.4081C150.919 44.575 151.206 44.8 151.431 45.0831ZM150.908 46.64C150.915 46.3134 150.806 46.0049 150.581 45.7146C150.284 45.3371 149.914 45.1484 149.471 45.1484H147.152V48.1315H149.471C149.863 48.1315 150.208 47.9754 150.505 47.6634C150.759 47.3875 150.894 47.0464 150.908 46.64Z" fill="#1E1A2F"/>
<path d="M158.21 41.2944H159.146V49.1331H158.068V43.2323L154.116 49.1331H153.169V41.2944H154.236V47.1952L158.21 41.2944Z" fill="#1E1A2F"/>
<path d="M165.959 41.2944H167.015V49.1331H165.959V46.3025H161.941V49.1331H160.885V41.2944H161.941V45.2573H165.959V41.2944Z" fill="#1E1A2F"/>
<path d="M171.477 45.4859H169.822V49.1331H168.755V41.2944H169.822V44.6259H171.477L173.578 41.2944H174.841L172.402 45.0505L175.058 49.1331H173.785L171.477 45.4859Z" fill="#1E1A2F"/>
<path d="M180.688 49.1331L180.209 47.7069H176.67L176.202 49.1331H175.113L177.694 41.2944H179.196L181.776 49.1331H180.688ZM176.997 46.7162H179.882L178.434 42.3831L176.997 46.7162Z" fill="#1E1A2F"/>
</g>
</g>
</svg>
