<svg width="117" height="26" viewBox="0 0 117 26" fill="none" xmlns="http://www.w3.org/2000/svg">
<g id="Group 197">
<g id="1954">
<path d="M60.8205 1.28004V16.8599C60.8205 18.0059 61.0643 18.7861 61.5519 19.2006C62.0395 19.5907 62.8685 19.7857 64.0388 19.7857V20.5537C63.5512 20.5294 62.832 20.505 61.8811 20.4806C60.9546 20.4318 59.9915 20.4075 58.9918 20.4075C57.8215 20.4075 56.7 20.4318 55.6272 20.4806C54.5544 20.505 53.7254 20.5294 53.1402 20.5537V19.7857C54.3106 19.7857 55.2249 19.5907 55.8832 19.2006C56.5415 18.7861 56.8706 17.9815 56.8706 16.7868V7.89966C56.8706 6.72934 56.7487 5.86379 56.5049 5.30301C56.2855 4.74223 55.871 4.37651 55.2614 4.20584C54.6763 4.03517 53.8717 3.94983 52.8477 3.94983V3.14524C54.7007 3.09647 56.2489 2.93799 57.4924 2.66979C58.7358 2.4016 59.8452 1.93834 60.8205 1.28004Z" fill="white"/>
<path d="M74.536 1.17032C76.9742 1.17032 78.8881 2.02368 80.2779 3.7304C81.6676 5.43711 82.3625 7.8509 82.3625 10.9718C82.3625 12.971 82.0821 14.7509 81.5214 16.3113C80.9606 17.8474 80.2047 19.2006 79.2539 20.3709C78.3274 21.5168 77.2911 22.4677 76.1452 23.2235C74.9993 24.0038 73.8289 24.6133 72.6342 25.0522C71.4639 25.5154 70.3546 25.8324 69.3061 26.003L69.1599 25.2716C70.1839 24.979 71.2201 24.5645 72.2685 24.0281C73.3413 23.4917 74.3166 22.7115 75.1943 21.6875C76.0964 20.6635 76.8157 19.2859 77.3521 17.5548C77.8885 15.8237 78.1567 13.6294 78.1567 10.9718C78.1567 8.58235 77.9494 6.74153 77.535 5.4493C77.1448 4.13269 76.645 3.21838 76.0355 2.70637C75.4259 2.16997 74.8042 1.90177 74.1703 1.90177C73.512 1.90177 72.8902 2.15778 72.3051 2.66979C71.7199 3.15743 71.2445 3.96202 70.8788 5.08358C70.513 6.20514 70.3302 7.68023 70.3302 9.50885C70.3302 11.2643 70.4887 12.6663 70.8056 13.7147C71.147 14.7631 71.598 15.5189 72.1588 15.9822C72.744 16.4454 73.3657 16.6771 74.024 16.6771C74.5116 16.6771 75.048 16.5552 75.6332 16.3113C76.2427 16.0675 76.8035 15.6652 77.3155 15.1044C77.8275 14.5193 78.1811 13.7269 78.3761 12.7272L78.7418 12.6175C78.5712 13.9341 78.1567 14.9582 77.4984 15.6896C76.8645 16.4211 76.133 16.9453 75.304 17.2622C74.4751 17.5792 73.6826 17.7377 72.9268 17.7377C71.7321 17.7377 70.6106 17.4329 69.5621 16.8234C68.5381 16.1894 67.7091 15.2873 67.0752 14.117C66.4413 12.9223 66.1243 11.4716 66.1243 9.76486C66.1243 7.93623 66.5022 6.37581 67.2581 5.08358C68.0383 3.79135 69.0623 2.81608 70.3302 2.15778C71.6224 1.49947 73.0243 1.17032 74.536 1.17032Z" fill="white"/>
<path d="M96.897 0C96.897 1.4629 96.9091 2.60884 96.9335 3.43782C96.9579 4.24241 96.9945 4.97386 97.0432 5.63217C96.8482 5.5834 96.4703 5.54683 95.9095 5.52245C95.3731 5.49807 94.7514 5.48588 94.0443 5.48588C93.3372 5.46149 92.6423 5.4493 91.9597 5.4493H87.4978L87.0224 12.2152C87.5588 11.8983 88.1927 11.6179 88.9241 11.374C89.68 11.1302 90.6065 11.0083 91.7037 11.0083C93.2397 11.0083 94.4954 11.2643 95.4706 11.7763C96.4703 12.264 97.2017 12.9345 97.665 13.7878C98.1526 14.6412 98.3964 15.6043 98.3964 16.6771C98.3964 18.0912 98.0185 19.3712 97.2627 20.5172C96.5068 21.6631 95.495 22.6384 94.2272 23.443C92.9837 24.2476 91.6061 24.8693 90.0945 25.3082C88.5828 25.747 87.0589 25.9665 85.5229 25.9665V25.3082C86.6201 25.3082 87.6807 25.1253 88.7047 24.7596C89.7531 24.4182 90.6918 23.894 91.5208 23.187C92.3498 22.4799 93.0081 21.6143 93.4957 20.5903C94.0077 19.5663 94.2637 18.3716 94.2637 17.0062C94.2637 15.4702 93.8736 14.2755 93.0934 13.4221C92.3376 12.5688 91.2404 12.1421 89.8019 12.1421C89.1436 12.1421 88.5828 12.2152 88.1195 12.3615C87.6807 12.4834 87.2052 12.6663 86.6932 12.9101L86.2909 12.6541L87.1321 1.57262C87.4003 1.62138 87.7051 1.65795 88.0464 1.68234C88.4121 1.70672 88.7657 1.71891 89.107 1.71891H93.8614C94.7636 1.71891 95.3487 1.597 95.6169 1.35318C95.9095 1.08498 96.0924 0.633924 96.1655 0H96.897Z" fill="white"/>
<path d="M112.758 1.17032L112.904 2.12121L102.262 16.7136L102.408 15.909H113.745C114.745 15.909 115.379 15.7749 115.647 15.5067C115.915 15.2385 116.098 14.7753 116.196 14.117H116.854C116.854 15.4092 116.866 16.4089 116.891 17.1159C116.915 17.7986 116.952 18.4204 117 18.9811C116.83 18.9324 116.537 18.908 116.123 18.908C115.733 18.8836 115.257 18.8592 114.696 18.8348C114.136 18.8105 113.563 18.7983 112.977 18.7983C112.392 18.7983 111.819 18.7983 111.259 18.7983H100.287V18.0302L112.758 1.17032ZM113.343 1.17032V25.7105H109.978V5.48588L112.758 1.17032H113.343Z" fill="white"/>
</g>
<line id="Line 1" y1="12.7383" x2="39.2323" y2="12.7383" stroke="white"/>
</g>
</svg>
